<svg xmlns="http://www.w3.org/2000/svg" viewBox="0 0 100 48"><defs><style>.cls-1{fill:#d7d7d7;}.cls-2{fill:#2e3191;}.cls-3{fill:#fff;fill-rule:evenodd;}</style></defs><title>logo bank colorful</title><g id="ATM_Bersama" data-name="ATM Bersama"><path class="cls-1" d="M96,1a3,3,0,0,1,3,3V44a3,3,0,0,1-3,3H4a3,3,0,0,1-3-3V4A3,3,0,0,1,4,1H96m0-1H4A4,4,0,0,0,0,4V44a4,4,0,0,0,4,4H96a4,4,0,0,0,4-4V4a4,4,0,0,0-4-4Z"/><rect class="cls-2" x="16.89" y="8.16" width="67.2" height="31.38"/><polygon class="cls-3" points="80.11 27.09 81.99 27.09 81.99 10.67 80.06 10.67 80.11 27.09"/><polygon class="cls-3" points="67.93 19.03 66.93 20.6 66.88 10.72 67.93 10.72 68.76 10.72 69.03 10.72 69.03 17.41 68.76 17.83 67.93 19.03"/><polygon class="cls-3" points="64.84 26.15 64 27.4 64.84 27.4 67.04 27.4 67.93 25.99 68.76 24.73 77.97 10.67 75.25 10.67 69.03 20.34 69.03 19.66 68.76 20.03 67.93 21.28 64.84 26.15"/><polygon class="cls-3" points="55.9 19.56 51.19 26.67 51.24 27.82 52.81 27.82 55.9 23.17 64 10.72 61.7 10.72 55.9 19.56"/><polygon class="cls-3" points="55.9 27.82 54.33 27.82 55.9 25.41 64.84 11.56 65.36 10.72 65.63 10.72 65.63 22.59 64.84 23.79 63.27 26.25 63.27 18.2 57.1 27.82 55.9 27.82"/><polygon class="cls-3" points="45.18 12.65 40.16 12.65 41.26 10.72 45.18 10.72 55.9 10.72 60.6 10.72 59.19 12.6 55.9 12.6 45.18 12.65"/><polygon class="cls-3" points="45.18 19.71 39.79 27.93 38.48 27.93 38.48 26.51 45.18 16 45.28 15.84 45.18 15.84 38.8 15.84 38.64 15.22 39.42 13.86 45.18 13.8 48.99 13.8 45.18 19.71"/><polygon class="cls-3" points="45.18 21.91 41.31 27.93 44.45 27.93 45.18 26.72 51.61 15.9 55.9 15.9 56.79 15.9 58.41 13.7 55.9 13.75 50.41 13.8 45.18 21.91"/><polygon class="cls-3" points="35.61 27.72 37.96 27.72 37.96 10.72 35.5 10.72 35.61 27.72"/><polygon class="cls-3" points="27.03 18.09 20.7 27.72 18.98 27.72 18.98 26.51 27.03 14.17 29.28 10.72 30.8 10.72 31.84 10.72 30.8 12.34 27.03 18.09"/><path class="cls-3" d="M27,20.29l-.73,1.15h8.05V10.72h-1.2L30.8,14.48,27,20.29Zm3.77-.52-1,.05,2.2-3.5h.42v3.45Z"/><polygon class="cls-3" points="68.76 27.04 78.91 11.29 78.86 27.09 76.71 27.09 76.71 18.3 71.12 27.4 68.76 27.4 68.5 27.4 68.76 27.04"/><path class="cls-3" d="M78.39,33.83h1.31L78.39,31V31l-1.26,2.88ZM17.77,29.18h3.77a14.28,14.28,0,0,1,1.67.05,2.29,2.29,0,0,1,1,.37,2.75,2.75,0,0,1,.73.63,1.76,1.76,0,0,1,.26.89,1.47,1.47,0,0,1-.37,1,1.84,1.84,0,0,1-.94.68,2.81,2.81,0,0,1,1.31.68,1.74,1.74,0,0,1,.47,1.2,1.85,1.85,0,0,1-.31,1,2.8,2.8,0,0,1-.78.78,3.21,3.21,0,0,1-1.31.37,12.94,12.94,0,0,1-1.73.05H17.77V29.18Zm3.77,1.31H19.71v1.78h1.83a5.15,5.15,0,0,1,.78-.05,1.74,1.74,0,0,0,.78-.26.87.87,0,0,0,.26-.63.84.84,0,0,0-.26-.58,1.16,1.16,0,0,0-.68-.26Zm0,3H19.71v2h3a1.18,1.18,0,0,0,.68-.31.8.8,0,0,0,.26-.68,1.06,1.06,0,0,0-.16-.58,1.81,1.81,0,0,0-.63-.37,6.6,6.6,0,0,0-1.36-.1Zm5.75,3.35V29.18h7v1.31H29.18v1.73h4.71v1.26H29.18v2.09H34.4v1.31Zm12.55-6.38H38v1.93h1.88a4.83,4.83,0,0,0,1.2-.1.89.89,0,0,0,.52-.31.71.71,0,0,0,.21-.58.87.87,0,0,0-.26-.63,1.35,1.35,0,0,0-.73-.31Zm0,3.61a2.17,2.17,0,0,0-.58-.37,4.55,4.55,0,0,0-.94-.05H38v3.19H36V29.18h4a7.7,7.7,0,0,1,2.2.21,2.13,2.13,0,0,1,1,.73,1.78,1.78,0,0,1,.42,1.2,2,2,0,0,1-.63,1.46,3.29,3.29,0,0,1-1.83.68,3.68,3.68,0,0,1,1,.68,7.54,7.54,0,0,1,1.1,1.26l1.15,1.46H42.2l-1.36-1.67a7.94,7.94,0,0,0-1-1.1Zm5.18.26,1.88-.1a1.73,1.73,0,0,0,.68,1.1,2.47,2.47,0,0,0,1.36.37,2.37,2.37,0,0,0,1.36-.31.92.92,0,0,0,.47-.78.48.48,0,0,0-.21-.42,1.16,1.16,0,0,0-.68-.37l-1.52-.31a5.77,5.77,0,0,1-2.14-.78,1.83,1.83,0,0,1-.84-1.52,1.46,1.46,0,0,1,.42-1.1A2.07,2.07,0,0,1,47,29.34,5,5,0,0,1,48.79,29a4.53,4.53,0,0,1,2.67.68,2,2,0,0,1,.94,1.67l-1.88.05a1.37,1.37,0,0,0-.52-.84,2.42,2.42,0,0,0-1.2-.26,2.89,2.89,0,0,0-1.31.26.64.64,0,0,0-.31.52.49.49,0,0,0,.31.42,4.14,4.14,0,0,0,1.73.52,10.25,10.25,0,0,1,2,.58,2.75,2.75,0,0,1,1,.78,2.12,2.12,0,0,1-.05,2.46,2.67,2.67,0,0,1-1.26.84,6.07,6.07,0,0,1-2.09.31,4.55,4.55,0,0,1-2.72-.68,3,3,0,0,1-1.15-2ZM58,31,57.94,31l-1.26,2.88h2.56L58,31Zm0,4.13H56.11l-.78,1.73h-2L57,29.18h2l3.77,7.69h-2l-.84-1.73Zm5.75,1.73V29.18h2.82l1.73,5.23L70,29.18h2.82v7.69H71.06V30.8l-1.88,6.07H67.35L65.52,30.8v6.07ZM78.39,31V29.18h1l3.77,7.69H81.1l-.84-1.73H76.56l-.78,1.73h-2l3.66-7.69h1Z"/><polygon class="cls-3" points="25.66 22.64 34.36 22.59 34.36 27.7 32.3 27.7 32.3 24.86 27 24.86 25.25 27.72 22.22 27.72 25.51 22.64 25.66 22.65 25.66 22.64"/></g></svg>