<svg xmlns="http://www.w3.org/2000/svg" viewBox="0 0 100 48"><defs><style>.cls-1{fill:#d7d7d7;}.cls-2{fill:#005faf;}</style></defs><title>logo bank colorful</title><g id="BCA"><path class="cls-1" d="M96,1a3,3,0,0,1,3,3V44a3,3,0,0,1-3,3H4a3,3,0,0,1-3-3V4A3,3,0,0,1,4,1H96m0-1H4A4,4,0,0,0,0,4V44a4,4,0,0,0,4,4H96a4,4,0,0,0,4-4V4a4,4,0,0,0-4-4Z"/><path class="cls-2" d="M53.49,24.29c5.26-2.39,6-10.17-1.44-10.17H43.38l-3.2,6.28h1.51l-3.83,15h10C55.23,35.46,58.52,26.83,53.49,24.29ZM47.9,29.94H45.39l.94-3.39h2.39C51.54,27.11,49.78,30.06,47.9,29.94Zm1.51-7.22H47.27l.63-3h2.39C52.59,20.33,50.6,22.84,49.41,22.72Z"/><path id="path3262" class="cls-2" d="M74.05,22.13l3.29-5.81L72.89,14l-.58.72c-2.4-1.27-15,.48-15.76,12.88C57,38,68.68,36.14,69.82,35.48L73,28.85c-3.14,2.07-9.57,3.06-9.84-3.15C63.75,20.58,69.8,18.66,74.05,22.13Z"/><path class="cls-2" d="M90.46,14.12H80.35l-3.21,6.09h1.65L71.17,35.4h7.38l1.51-3.66h4.53l.11,3.66h6.79ZM82.11,26.8l2.48-5.91.11,5.91Z"/><path class="cls-2" d="M21.67,37.91a23.31,23.31,0,0,1-10.54-2.56L11,35.3,11,35.19c-3.28-6.94-3.28-14.84,0-20.63l.05-.1.1,0a23.36,23.36,0,0,1,20.62.14l.11.06.05.11a23.33,23.33,0,0,1,0,20.61l-.05.11-.11.05A22.51,22.51,0,0,1,21.67,37.91ZM11.57,34.77a22,22,0,0,0,19.8.14,22.62,22.62,0,0,0-.05-19.77A22.64,22.64,0,0,0,11.55,15C8.45,20.56,8.46,28.11,11.57,34.77Z"/><path id="path3357" class="cls-2" d="M19.36,31.73h.46a3.55,3.55,0,0,0-1.67-3.23c-1.23-.88-4.76-1.07-5.33-2.22a2.76,2.76,0,0,0,1.06,4.12C15.92,31.16,18.46,29,19.36,31.73Z"/><path id="path3359" class="cls-2" d="M22.72,31.73h.42c1.28-3,3.66.11,6.15-1.67,1-.72,1.34-2.11.39-3.77C29.12,28,23.06,26.92,22.72,31.73Z"/><path id="path3365" class="cls-2" d="M21,31.73h.53c0-2-.37-5.32.61-7.84,1.2-2.35,2.16-2,3.13-4.38a4,4,0,0,0-3.74-5.24c-3.79.2-4.92,2.85-4.26,5.3.42,1.55,2.31,2.41,3.06,4.32C21.33,26.43,21,29.86,21,31.73Z"/><path id="path3371" class="cls-2" d="M20.25,31.73A5,5,0,0,0,19.33,29c-2.58-3.24-7.86-.8-6.51-6.31.71-2.81,8.75-4.48,7.83,9Z"/><path id="path3231" class="cls-2" d="M21.9,31.75h.47A4.31,4.31,0,0,1,24,28.24c2.75-2,7-.66,5.71-5.54-1-2.43-5.37-3.39-7.28,2C21.82,26.34,21.88,28.58,21.9,31.75Z"/><path id="path3233" class="cls-2" d="M15,34l.64.21-.31,1.06-.26-.07,0-.17c-.32.14-.9,0-1-.33a2.69,2.69,0,0,1,.47-1.6c.32-.41,1.11,0,1.13.24a1.49,1.49,0,0,1-.08.52l-.3-.06,0-.23c0-.15-.36-.29-.47-.14a2.57,2.57,0,0,0-.35,1c0,.42.37.33.47.28s.14-.38.14-.38l-.28-.09Z"/><path class="cls-2" d="M17.78,34.14c0-.33-.12-.64-1.24-.77l-.46,2.06.43.08.21-.86c.76,0,.37.66.33,1l.39.09c0-.37.26-.87,0-1.1C17.67,34.58,17.74,34.4,17.78,34.14Zm-.42,0c-.13.29-.36.13-.55.12l.12-.48C17.38,33.83,17.38,34,17.37,34.18Z"/><path id="path3243" class="cls-2" d="M18.44,33.71l.41.06-.18,1.44c0,.48.5.45.6.1l.19-1.51.34,0-.15,1.66a.71.71,0,0,1-1.38-.06Z"/><path id="path3235" class="cls-2" d="M20.37,36.05l.11-2.17c.79,0,1.24.13,1.23.68,0,.76-.66.59-1,.58l-.08.91Zm.51-1.77-.08.53c.2,0,.44.15.53-.23S21.1,34.27,20.88,34.28Z"/><path id="path3240" class="cls-2" d="M23.46,36l-.34-2.09c.18,0,1-.35,1.25.23a.57.57,0,0,1-.13.63.57.57,0,0,1,.37.46c0,.32-.09.53-.29.6Zm.09-1.86.1.54c.25-.06.38-.2.35-.39S23.85,34,23.55,34.12Zm.19,1,.09.56c.21,0,.4-.12.34-.38S23.91,35,23.74,35.07Z"/><path id="path3253" class="cls-2" d="M25.92,34.05l.37-.06c-.08-.27,0-.65-.87-.52-.52.12-.37.77-.28,1.38s.26.83.81.79c.26,0,.6-.12.51-.85l-.37.05c0,.19.08.34-.13.49s-.26.07-.38-.16l-.19-1a.34.34,0,0,1,.2-.42C25.77,33.73,25.86,33.82,25.92,34.05Z"/><path id="path3255" class="cls-2" d="M27.06,35.33l-.11-2.18.43-.11,1.06,1.8-.29.19-.35-.51-.41.15,0,.53Zm.23-1.66,0,.71.39-.11Z"/></g></svg>