<svg id="BNI" xmlns="http://www.w3.org/2000/svg" viewBox="0 0 100 48"><defs><style>.cls-1{fill:#d7d7d7;}.cls-2{fill:#f15a23;}.cls-3{fill:#005e6a;}</style></defs><title>logo bank colorful</title><path class="cls-1" d="M96,1a3,3,0,0,1,3,3V44a3,3,0,0,1-3,3H4a3,3,0,0,1-3-3V4A3,3,0,0,1,4,1H96m0-1H4A4,4,0,0,0,0,4V44a4,4,0,0,0,4,4H96a4,4,0,0,0,4-4V4a4,4,0,0,0-4-4Z"/><g id="layer3"><path id="path3242" class="cls-2" d="M15.83,21l5.77,7.27L15.83,33V21Z"/><path id="path3244" class="cls-2" d="M18.15,33l4.34-3.63,3,3.63Z"/><path id="path3248" class="cls-2" d="M15.83,17.07l1.5,1.9,6.19,7.73,2-1.6A24.85,24.85,0,0,1,22.74,21c-2.18-4.27-.64-6.94-.64-6.94H15.83Z"/><path id="path3250" class="cls-2" d="M24.4,27.9l2-1.69s1.95,2.57,4.21,3.17a3.81,3.81,0,0,0,4.27-1.15V33H28.42l1.47-1.27s-.77.51-2.64-.79A19.21,19.21,0,0,1,24.4,27.9Z"/><path id="path3262" class="cls-2" d="M24.59,14s-.65.89-.19,3.06a13,13,0,0,0,2.46,4.72,6.68,6.68,0,0,1,1.56-3.87,5.66,5.66,0,0,1,6.51-1.23V14Z"/><path id="path3298" class="cls-2" d="M34.93,19.9S33,18.25,31.32,18.25A3.32,3.32,0,0,0,28,21.44a5.25,5.25,0,0,0,1.88,4c1.35,1.35,3,2.82,5,1.64Z"/><path id="path3249" class="cls-3" d="M56.9,14.21h4.55s4,6.11,6,8.63,4.11,5.4,4.11,5.4V15.58c0-.55-1.44-1.37-1.44-1.37h5.25s-1.72.71-1.72,1.37V34a14.63,14.63,0,0,1-3.53-3.09c-2.11-2.45-9.6-12.32-9.6-12.32V31.36C60.54,32,62,33,62,33H56.9s1.39-1,1.39-1.65V15.58C58.29,15,56.9,14.21,56.9,14.21Z"/><path id="path3267" class="cls-3" d="M78.33,14.21h5.84S82.6,15,82.6,15.58V31.36C82.6,32,84.17,33,84.17,33H78.33s1.46-1,1.46-1.65V15.58C79.79,15,78.33,14.21,78.33,14.21Z"/><path id="path3283" class="cls-3" d="M39.71,14.21s1.51.76,1.51,1.37V31.36c0,.67-1.51,1.65-1.51,1.65h8.65c.54,0,6.6-1,6.6-5.66s-4.71-5.11-4.71-5.11a4.11,4.11,0,0,0,2.87-4c0-3.44-4.22-4-4.76-4Zm4.6,7.72V16.05h3.52a2.79,2.79,0,0,1,2.43,3,3.08,3.08,0,0,1-2.43,2.9Zm0,1.54h4.06c.54,0,3.73.83,3.73,3.6S48.9,30.9,48.36,30.9H44.31Z"/></g></svg>