<svg xmlns="http://www.w3.org/2000/svg" xmlns:xlink="http://www.w3.org/1999/xlink" viewBox="0 0 100 48"><defs><style>.cls-1{fill:#0285cd;}.cls-2{fill:#7dbd35;}.cls-3{fill:#00a7e8;}.cls-4{fill:#d7d7d7;}.cls-5{fill:#003d79;}.cls-6{fill:url(#linear-gradient);}.cls-7{fill:#fdb913;}</style><linearGradient id="linear-gradient" x1="-1491.13" y1="236.21" x2="-1490.75" y2="236.21" gradientTransform="matrix(144.69, -66.85, -66.85, -144.69, 231584.16, -65489.34)" gradientUnits="userSpaceOnUse"><stop offset="0" stop-color="#fdb913"/><stop offset="0.22" stop-color="#ffcb05"/><stop offset="0.39" stop-color="#faa61a"/><stop offset="0.53" stop-color="#ffcb05"/><stop offset="0.65" stop-color="#faa61a"/><stop offset="0.76" stop-color="#ffcb05"/><stop offset="1" stop-color="#ffcb05"/></linearGradient></defs><title>logo bank colorful</title><g id="Mandiri"><path class="cls-1" d="M79.12,32.65c-.06,0-.09,0,0-.09A.1.1,0,0,1,79.12,32.65Z"/><path class="cls-1" d="M78.95,32.08c-.06,0-.1,0,0-.09Z"/><path class="cls-1" d="M79,32.33s-.06,0,0,0A0,0,0,0,1,79,32.33Z"/><path class="cls-2" d="M80,35.49h0Z"/><path class="cls-3" d="M78.66,32.21a.09.09,0,0,1,0-.1A.11.11,0,0,1,78.66,32.21Z"/><path class="cls-3" d="M78.75,32.34a.09.09,0,0,1,0-.09A.1.1,0,0,1,78.75,32.34Z"/><path class="cls-3" d="M78.7,32.26l0,0Z"/><path class="cls-4" d="M96,1a3,3,0,0,1,3,3V44a3,3,0,0,1-3,3H4a3,3,0,0,1-3-3V4A3,3,0,0,1,4,1H96m0-1H4A4,4,0,0,0,0,4V44a4,4,0,0,0,4,4H96a4,4,0,0,0,4-4V4a4,4,0,0,0-4-4Z"/><g id="layer1"><g id="g20360"><g id="g19736"><path id="path19738" class="cls-5" d="M7.93,23.61c0-1.22,0-2.24-.09-3.16h2.31L10.26,22h.06a3.66,3.66,0,0,1,3.26-1.81,3.06,3.06,0,0,1,2.94,2h0a4,4,0,0,1,1.3-1.33A3.54,3.54,0,0,1,20,20.21c1.76,0,3.55,1.2,3.55,4.59V31H20.94V25.19c0-1.76-.61-2.81-1.89-2.81a2,2,0,0,0-1.87,1.42,3.83,3.83,0,0,0-.13.89V31H14.43V24.91c0-1.48-.59-2.52-1.83-2.52a2.09,2.09,0,0,0-1.92,1.52,2.31,2.31,0,0,0-.15.87V31H7.93Z"/></g><g id="g19740"><path id="path19742" class="cls-5" d="M33.73,28.5A17.08,17.08,0,0,0,33.88,31H31.46l-.17-1.17h-.07a3.93,3.93,0,0,1-3.13,1.41,3.15,3.15,0,0,1-3.33-3.16c0-2.68,2.37-4,6.29-4V24c0-.7-.28-1.85-2.16-1.85a5.62,5.62,0,0,0-2.85.78l-.52-1.74a7.62,7.62,0,0,1,3.83-.94c3.4,0,4.38,2.16,4.38,4.46Zm-2.61-2.63c-1.89,0-3.7.37-3.7,2a1.41,1.41,0,0,0,1.52,1.52A2.17,2.17,0,0,0,31,27.91a2,2,0,0,0,.09-.59Z"/></g><g id="g19744"><path id="path19746" class="cls-5" d="M35.58,23.61c0-1.22,0-2.24-.09-3.16h2.35L38,22H38a3.82,3.82,0,0,1,3.37-1.83c1.85,0,3.76,1.2,3.76,4.55V31H42.5v-6c0-1.52-.57-2.68-2-2.68A2.25,2.25,0,0,0,38.38,24a2.74,2.74,0,0,0-.11.87V31h-2.7Z"/></g><g id="g19748"><path id="path19750" class="cls-5" d="M56.78,16.19V28.07c0,1.09,0,2.26.09,3H54.47l-.11-1.67h0a3.81,3.81,0,0,1-3.46,1.91c-2.53,0-4.53-2.15-4.53-5.42,0-3.55,2.2-5.66,4.74-5.66a3.37,3.37,0,0,1,3,1.4h0V16.19ZM54.1,24.87a3.72,3.72,0,0,0-.07-.7,2.34,2.34,0,0,0-2.31-1.89c-1.72,0-2.68,1.52-2.68,3.5s1,3.35,2.66,3.35A2.36,2.36,0,0,0,54,27.24a2.93,2.93,0,0,0,.09-.78Z"/></g><path id="path19752" class="cls-5" d="M58.67,20.45h2.7V31h-2.7Z"/><g id="g19754"><path id="path19756" class="cls-5" d="M63.26,23.87c0-1.44,0-2.46-.09-3.42h2.33l.09,2h.09a2.92,2.92,0,0,1,2.9-2,3,3,0,0,1,.63,0V22.8a3.67,3.67,0,0,0-.78-.09,2.36,2.36,0,0,0-2.39,2,4.77,4.77,0,0,0-.09.83V31H63.26Z"/></g><path id="path19758" class="cls-5" d="M70.45,20.45h2.7V31h-2.7Z"/><g id="g19760"><g id="g19762"><g id="g19768"><g id="g19770"><path id="path19788" class="cls-6" d="M69.9,7.62c-1.62.94-6.92,4-6.92,4h0a3.29,3.29,0,0,1-4-.91h0l-.06-.09h0l-.06-.11-.34-.55c-.14-.23-.3-.46-.49-.7h0a7.15,7.15,0,0,0-.54-.62h0c-1.28-1.29-3.32-2.2-6.72-.58h0l-6.84,3.91h0l-3.5,2h0l1.81,2.22a3.69,3.69,0,0,0,4.41.91h0l6.14-3.55h0c5.23-2.87,7.81-.13,9,1.7h0l.11.17h0l0,.06h0l.13.21A2.86,2.86,0,0,0,64.5,17h0A3.06,3.06,0,0,0,66,16.53h0L72,13.1h0c5.3-2.91,7.92,0,9,1.84h0a4.64,4.64,0,0,0,.29.45h0a2.72,2.72,0,0,0,2.29,1.22h0a3.47,3.47,0,0,0,1.47-.47h0l7.1-4.1a29.85,29.85,0,0,0-2.22-2.8h0C88.6,7.72,87.18,8.41,86.06,9h0c-.47.23-3.9,2.18-3.9,2.18h0a3.34,3.34,0,0,1-3.91-.78h0a1.8,1.8,0,0,1-.15-.21h0L78,9.92a10.51,10.51,0,0,0-.75-1.13h0a6.45,6.45,0,0,0-.54-.62h0a4.6,4.6,0,0,0-3.38-1.45h0a7.88,7.88,0,0,0-3.39.89"/></g></g></g></g></g></g><path class="cls-7" d="M9.36,38.55a2.26,2.26,0,0,1-.79-.13A1.62,1.62,0,0,1,8,38a1.83,1.83,0,0,1-.4-.68,2.94,2.94,0,0,1-.14-1,2.74,2.74,0,0,1,.15-.95A2,2,0,0,1,8,34.76a1.63,1.63,0,0,1,.61-.42,2.1,2.1,0,0,1,.79-.15,2.27,2.27,0,0,1,.66.1,3.55,3.55,0,0,1,.57.22v.79h0l-.19-.15L10.08,35a1.87,1.87,0,0,0-.34-.13,1.4,1.4,0,0,0-.38-.06,1.07,1.07,0,0,0-.88.41,2.23,2.23,0,0,0,0,2.32,1.06,1.06,0,0,0,.89.41A1.55,1.55,0,0,0,10,37.8a2,2,0,0,0,.55-.37h0v.79l-.26.12-.28.1-.32.08A2,2,0,0,1,9.36,38.55Z"/><path class="cls-7" d="M12,38.46h-.7V32.64H12Z"/><path class="cls-7" d="M13.76,33.59H13v-.73h.8Zm0,4.87H13V34.29h.7Z"/><path class="cls-7" d="M16.4,38.55a2.26,2.26,0,0,1-.79-.13A1.62,1.62,0,0,1,15,38a1.83,1.83,0,0,1-.4-.68,2.94,2.94,0,0,1-.14-1,2.74,2.74,0,0,1,.15-.95,2,2,0,0,1,.39-.67,1.63,1.63,0,0,1,.61-.42,2.1,2.1,0,0,1,.79-.15,2.27,2.27,0,0,1,.66.1,3.55,3.55,0,0,1,.57.22v.79h0l-.19-.15L17.11,35a1.87,1.87,0,0,0-.34-.13,1.4,1.4,0,0,0-.38-.06,1.07,1.07,0,0,0-.88.41,2.23,2.23,0,0,0,0,2.32,1.06,1.06,0,0,0,.89.41A1.55,1.55,0,0,0,17,37.8a2,2,0,0,0,.55-.37h0v.79l-.26.12-.28.1-.32.08A2,2,0,0,1,16.4,38.55Z"/><path class="cls-7" d="M21.73,38.46h-.92l-1.56-2-.28.27v1.75h-.7V32.64H19V36l1.65-1.76h.87L19.79,36Z"/><path class="cls-7" d="M25.59,36.26a2.57,2.57,0,0,1-.5,1.66,1.55,1.55,0,0,1-1.26.62,1.93,1.93,0,0,1-.55-.07,2.15,2.15,0,0,1-.49-.22V40h-.7V34.29h.7v.44a2.58,2.58,0,0,1,.58-.39,1.55,1.55,0,0,1,.7-.16,1.29,1.29,0,0,1,1.12.57A2.59,2.59,0,0,1,25.59,36.26Zm-.72.08a2.23,2.23,0,0,0-.23-1.11.79.79,0,0,0-.74-.39,1.33,1.33,0,0,0-.58.13,2.5,2.5,0,0,0-.53.34v2.37a2.49,2.49,0,0,0,.47.18,1.88,1.88,0,0,0,.45,0,1,1,0,0,0,.85-.4A1.92,1.92,0,0,0,24.86,36.34Z"/><path class="cls-7" d="M28.65,38l-.23.18a1.62,1.62,0,0,1-.28.18,2.1,2.1,0,0,1-.36.15,1.77,1.77,0,0,1-.49.05,1.26,1.26,0,0,1-.9-.37,1.27,1.27,0,0,1-.27-.42,1.52,1.52,0,0,1,.08-1.27,1.25,1.25,0,0,1,.58-.48,2.88,2.88,0,0,1,.83-.22q.48-.06,1-.09v-.13a.9.9,0,0,0-.07-.4.55.55,0,0,0-.21-.23.82.82,0,0,0-.33-.11l-.4,0a2.69,2.69,0,0,0-.57.07,3.84,3.84,0,0,0-.66.21h0v-.71l.56-.12a3.93,3.93,0,0,1,.72-.07,3.32,3.32,0,0,1,.72.07,1.39,1.39,0,0,1,.53.24,1,1,0,0,1,.34.44,1.75,1.75,0,0,1,.11.67v2.86h-.7Zm0-.58V36.27l-.63.06a3.42,3.42,0,0,0-.62.11,1.13,1.13,0,0,0-.46.26.66.66,0,0,0-.18.5.69.69,0,0,0,.2.54.85.85,0,0,0,.59.18,1.25,1.25,0,0,0,.6-.14A2.61,2.61,0,0,0,28.65,37.43Z"/><path class="cls-7" d="M33.56,34.29,31.32,40h-.75l.75-1.74-1.52-4h.76l1.14,3.09,1.14-3.09Z"/></g></svg>