<svg xmlns="http://www.w3.org/2000/svg" xmlns:xlink="http://www.w3.org/1999/xlink" viewBox="0 0 100 48"><defs><style>.cls-1{fill:none;}.cls-2{fill:#d7d7d7;}.cls-3{fill:#3a3a3a;}.cls-4{fill:#0097b9;}.cls-5{fill:#80b13a;}.cls-6{fill:#d81936;}.cls-7{clip-path:url(#clip-path);}.cls-8{fill:#005874;}.cls-9{fill:#2fb8e7;}.cls-10{fill:#007592;}.cls-11{clip-path:url(#clip-path-2);}.cls-12{fill:#6e9123;}.cls-13{fill:#3f7937;}.cls-14{fill:#a5c550;}.cls-15{fill:#5d8b27;}.cls-16{clip-path:url(#clip-path-3);}.cls-17{fill:#af2c35;}.cls-18{fill:#762624;}.cls-19{fill:#b22b37;}.cls-20{fill:#dc505e;}</style><clipPath id="clip-path"><polygon class="cls-1" points="41.15 15.5 41.13 15.91 49 25.14 49.28 25.18 49.31 25.16 49.45 24.91 46.1 13.68 45.53 13.3 41.15 15.5 41.15 15.5"/></clipPath><clipPath id="clip-path-2"><polygon class="cls-1" points="53.33 13.32 49.97 28.5 50.09 28.79 50.14 28.81 50.52 28.71 58.87 16.07 58.86 15.41 53.77 13.07 53.33 13.32 53.33 13.32"/></clipPath><clipPath id="clip-path-3"><polygon class="cls-1" points="46.21 9.09 46.01 9.48 49.6 19.85 49.82 19.99 49.82 19.99 50.02 19.88 53.14 9.45 52.72 9.02 46.21 9.09 46.21 9.09"/></clipPath></defs><title>logo bank colorful</title><g id="Permata"><path class="cls-2" d="M96,1a3,3,0,0,1,3,3V44a3,3,0,0,1-3,3H4a3,3,0,0,1-3-3V4A3,3,0,0,1,4,1H96m0-1H4A4,4,0,0,0,0,4V44a4,4,0,0,0,4,4H96a4,4,0,0,0,4-4V4a4,4,0,0,0-4-4Z"/><g id="g4312"><path id="path4314" class="cls-3" d="M59.44,38c0-.12,0-.32,0-.59V32.24l0-.51c0-.11,0-.18,0-.22a.5.5,0,0,0,0-.11.42.42,0,0,0-.26-.27,1.46,1.46,0,0,0-.53-.08v-.18h3a7.5,7.5,0,0,1,1.17.09,3.33,3.33,0,0,1,.84.23,1.52,1.52,0,0,1,.93,1.5c0,1-.66,1.66-2,1.82l-.23,0a5.5,5.5,0,0,1,.92.16,2.39,2.39,0,0,1,.57.21,1.82,1.82,0,0,1,1.08,1.76,1.85,1.85,0,0,1-1.45,1.93,4.91,4.91,0,0,1-.8.14,10.08,10.08,0,0,1-1.05.05H58.61v-.18a.94.94,0,0,0,.69-.18.39.39,0,0,0,.1-.14,1,1,0,0,0,0-.27m.92-6.92v3.31h1.16c1.35,0,2.05-.57,2.06-1.69s-.73-1.62-2.16-1.62Zm3.45,5.48A1.71,1.71,0,0,0,63,35a2.34,2.34,0,0,0-.64-.2,4.9,4.9,0,0,0-.85-.07H60.35v3.86h1.12a2.65,2.65,0,0,0,1.77-.46,1.43,1.43,0,0,0,.42-.62,2.55,2.55,0,0,0,.15-.89"/></g><g id="g4316"><path id="path4318" class="cls-3" d="M69.11,38.59A1.45,1.45,0,0,1,69,38v-.11l-.07.08a2.67,2.67,0,0,1-.25.25l-.28.22a2.45,2.45,0,0,1-.68.36,2.31,2.31,0,0,1-.73.1,1.63,1.63,0,0,1-1.1-.33,1.36,1.36,0,0,1-.34-.5,1.68,1.68,0,0,1-.13-.64c0-.85.53-1.4,1.59-1.64q.42-.1.89-.16t1.07-.1l0-.74a4,4,0,0,0,0-.61,1.44,1.44,0,0,0-.12-.41,1,1,0,0,0-.95-.46,1,1,0,0,0-1.2,1.06,1,1,0,0,1,0,.24.19.19,0,0,1-.07.1.68.68,0,0,1-.36.08c-.37,0-.5-.1-.5-.29a1,1,0,0,1,.19-.56,1.67,1.67,0,0,1,.54-.47A3.28,3.28,0,0,1,68,33.09a1.83,1.83,0,0,1,1.45.47,1.26,1.26,0,0,1,.23.48,3,3,0,0,1,.08.74v.35l0,.76v1.56c0,.24,0,.42,0,.63s.09.42.25.48a1.7,1.7,0,0,0,.63.09,1.45,1.45,0,0,0,.51-.08.44.44,0,0,0,.25-.35,3.85,3.85,0,0,0,0-.76v-3a1.42,1.42,0,0,0-.15-.84.73.73,0,0,0-.61-.2v-.16l1.58-.12v1.26l.08-.15a2.33,2.33,0,0,1,.8-.89,2.09,2.09,0,0,1,1.11-.26,1.49,1.49,0,0,1,1.41.67,1.53,1.53,0,0,1,.22.54,4.11,4.11,0,0,1,.06.82v2.29a4,4,0,0,0,0,.76.43.43,0,0,0,.25.34,2.17,2.17,0,0,0,.59.08,1.34,1.34,0,0,0,.47-.08.44.44,0,0,0,.24-.35,4.06,4.06,0,0,0,0-.76V32.08a3.44,3.44,0,0,0,0-.69.38.38,0,0,0-.24-.31,1.64,1.64,0,0,0-.5-.06v-.16l1.65-.08q0,.55,0,1.12t0,1v3.62l1.81-2a1.25,1.25,0,0,0,.4-.71c0-.27-.26-.39-.7-.41v-.16h2.36v.16a1.78,1.78,0,0,0-.37.08,1.8,1.8,0,0,0-.35.17l-.3.2a2.73,2.73,0,0,0-.3.27l-.49.52-.6.64,1.57,2.47a2.34,2.34,0,0,0,.49.62,1.18,1.18,0,0,0,.55.22v.16H81.05l-.16-.31-.23-.42-.17-.31-1.16-1.89-.91,1v.57a4,4,0,0,0,0,.76.44.44,0,0,0,.24.35,1.44,1.44,0,0,0,.51.08v.16H74.36v-.16c.33,0,.55-.06.64-.18a.51.51,0,0,0,.08-.16.94.94,0,0,0,0-.23c0-.07,0-.18,0-.32s0-.24,0-.29V35.25A2.94,2.94,0,0,0,75,34a1,1,0,0,0-1-.61,1.46,1.46,0,0,0-1.29.76,2.45,2.45,0,0,0-.28.65,2.74,2.74,0,0,0-.1.72v1.92a4,4,0,0,0,0,.76.43.43,0,0,0,.25.34,1.51,1.51,0,0,0,.52.08v.16H70.72l-.81,0c-.21,0-.31,0-.5,0s-.24-.09-.3-.2M66.3,37.37a1.4,1.4,0,0,0,.27.88.88.88,0,0,0,.71.34,1.71,1.71,0,0,0,.84-.23,1.68,1.68,0,0,0,.62-.6,1.84,1.84,0,0,0,.2-.61,5.61,5.61,0,0,0,.06-.92v-.57a10.24,10.24,0,0,0-1.19.15,2.94,2.94,0,0,0-.74.25,1.35,1.35,0,0,0-.77,1.3"/></g><g id="g4320"><path id="path4322" class="cls-3" d="M19.67,35.47v2a2.85,2.85,0,0,0,.05.71.41.41,0,0,0,.26.3,2,2,0,0,0,.62.08v.28h-3.1v-.28a1.81,1.81,0,0,0,.59-.08.4.4,0,0,0,.25-.3,3.06,3.06,0,0,0,0-.71V32.26a3.18,3.18,0,0,0,0-.71.41.41,0,0,0-.24-.31,1.68,1.68,0,0,0-.56-.09v-.28h3a3.58,3.58,0,0,1,2.19.53,2,2,0,0,1,.69,1.68,2,2,0,0,1-1.26,2.11,3.84,3.84,0,0,1-.84.2,8.24,8.24,0,0,1-1.13.07Zm0-.31h.51a1.86,1.86,0,0,0,1.35-.43,1.61,1.61,0,0,0,.36-.66,3.22,3.22,0,0,0,.12-.93q0-2-1.72-2h-.63Z"/></g><g id="g4324"><path id="path4326" class="cls-3" d="M28.37,35.8H24.77a6.82,6.82,0,0,0,.07,1,3.06,3.06,0,0,0,.2.71,1.47,1.47,0,0,0,1.39,1,1.63,1.63,0,0,0,1-.31,2.34,2.34,0,0,0,.72-.89l.26.17a2.72,2.72,0,0,1-.92,1.1,2.37,2.37,0,0,1-1.33.35,2.81,2.81,0,0,1-2-.79A3.05,3.05,0,0,1,23.34,36a3.2,3.2,0,0,1,.7-2.14,2.63,2.63,0,0,1,2-.8,2.58,2.58,0,0,1,1.39.36,2.07,2.07,0,0,1,.79,1,2.64,2.64,0,0,1,.13.52,7.13,7.13,0,0,1,.06.78m-3.6-.31H27q0-.49-.05-.79a2.61,2.61,0,0,0-.12-.53q-.29-.83-.88-.83t-1,.93a3.43,3.43,0,0,0-.13.52,6.94,6.94,0,0,0-.08.69"/></g><g id="g4328"><path id="path4330" class="cls-3" d="M28.61,33.26l2-.14c0,.2,0,.37,0,.5s0,.26,0,.36v.32a1.89,1.89,0,0,1,1.58-1.2,1,1,0,0,1,.65.23.77.77,0,0,1,.26.58.6.6,0,0,1-.22.47.84.84,0,0,1-.55.18.44.44,0,0,1-.5-.34.88.88,0,0,0-.12-.3.21.21,0,0,0-.19-.07h0q-.31,0-.6.5a2,2,0,0,0-.19.52,3.06,3.06,0,0,0-.06.66v2a3.18,3.18,0,0,0,0,.69.38.38,0,0,0,.24.29,1.85,1.85,0,0,0,.57.08v.26h-3v-.26a1.47,1.47,0,0,0,.54-.07.39.39,0,0,0,.23-.3,3.26,3.26,0,0,0,0-.69V34.55a1.56,1.56,0,0,0-.13-.86q-.15-.2-.63-.18Z"/></g><g id="g4332"><path id="path4334" class="cls-3" d="M35.5,33.12v1.05a2.07,2.07,0,0,1,1.85-1.08,1.38,1.38,0,0,1,1.51,1.12,2.42,2.42,0,0,1,.79-.85,1.94,1.94,0,0,1,1-.27,1.61,1.61,0,0,1,1.38.62,1.46,1.46,0,0,1,.25.57,4.1,4.1,0,0,1,.07.87v2.34a3.25,3.25,0,0,0,0,.69.39.39,0,0,0,.23.3,1.47,1.47,0,0,0,.54.07v.26H40.33v-.26a1.36,1.36,0,0,0,.51-.07.39.39,0,0,0,.22-.3,3.32,3.32,0,0,0,0-.69V35.16A2.57,2.57,0,0,0,40.9,34a.71.71,0,0,0-.68-.36,1.09,1.09,0,0,0-.95.59,1.88,1.88,0,0,0-.33,1.08v2.25a3.28,3.28,0,0,0,0,.69.39.39,0,0,0,.22.3,1.4,1.4,0,0,0,.52.07v.26H36.88v-.26a1.36,1.36,0,0,0,.51-.07.39.39,0,0,0,.22-.3,3.32,3.32,0,0,0,0-.69V35.15q0-1.58-.86-1.56a1.15,1.15,0,0,0-.91.51,2.09,2.09,0,0,0-.38,1.23v2.16a3.35,3.35,0,0,0,0,.7.38.38,0,0,0,.22.3,1.39,1.39,0,0,0,.51.07v.26H33.4v-.26a1.51,1.51,0,0,0,.54-.07.38.38,0,0,0,.23-.3,3.28,3.28,0,0,0,0-.7v-3a1.5,1.5,0,0,0-.13-.84q-.15-.19-.66-.18v-.26Z"/></g><g id="g4336"><path id="path4338" class="cls-3" d="M50.78,33.61v3.55a5.27,5.27,0,0,0,0,.57,1.74,1.74,0,0,0,.08.38.62.62,0,0,0,.21.28.52.52,0,0,0,.31.11,1.26,1.26,0,0,0,.75-.33l.15.27a2.19,2.19,0,0,1-1.46.53,1.28,1.28,0,0,1-1.2-.59,1.23,1.23,0,0,1-.1-.29,2.83,2.83,0,0,1,0-.44q0-.28,0-.74V33.61h-.61v-.32a1.31,1.31,0,0,0,.59-.15,1.18,1.18,0,0,0,.42-.42,2.2,2.2,0,0,0,.23-.48,4.45,4.45,0,0,0,.16-.66l.53-.05q0,.21,0,.43t0,.52q0,.31,0,.78h1.29v.34Z"/></g><g id="g4340"><path id="path4342" class="cls-3" d="M48.87,38.59v.23c-.31,0-.44,0-.76,0a2.18,2.18,0,0,1-.75-.09.72.72,0,0,1-.32-.2.62.62,0,0,1-.14-.44,2.82,2.82,0,0,1-.86.65,2.22,2.22,0,0,1-1,.21,1.69,1.69,0,0,1-1.2-.42,1.53,1.53,0,0,1-.44-1.14q0-1.37,1.7-1.7a13,13,0,0,1,1.75-.2V34.8a2.48,2.48,0,0,0-.18-1.15.66.66,0,0,0-.65-.31.73.73,0,0,0-.71.36,1,1,0,0,0-.11.29,3.56,3.56,0,0,0-.06.46.52.52,0,0,1-.16.4.77.77,0,0,1-.48.12q-.74,0-.75-.49a1,1,0,0,1,.17-.54,1.56,1.56,0,0,1,.49-.45,3.26,3.26,0,0,1,1.75-.4,2.27,2.27,0,0,1,1.58.44,1.2,1.2,0,0,1,.31.52,2.66,2.66,0,0,1,.1.8v1.85q0,.46,0,.57a5.65,5.65,0,0,0,0,.84.46.46,0,0,0,.17.35,1,1,0,0,0,.52.11m-2-2v-.82a3.25,3.25,0,0,0-1.62.42,1.21,1.21,0,0,0-.46,1.08,1.62,1.62,0,0,0,.24.91.74.74,0,0,0,.63.34,1.07,1.07,0,0,0,.6-.19,1.25,1.25,0,0,0,.43-.51,1.64,1.64,0,0,0,.15-.49,4.93,4.93,0,0,0,0-.74"/></g><g id="g4344"><path id="path4346" class="cls-3" d="M58,38.59v.23c-.31,0-.44,0-.76,0a2.18,2.18,0,0,1-.75-.09.72.72,0,0,1-.32-.2.62.62,0,0,1-.14-.44,2.81,2.81,0,0,1-.86.65,2.21,2.21,0,0,1-1,.21,1.69,1.69,0,0,1-1.2-.42,1.53,1.53,0,0,1-.44-1.14q0-1.37,1.7-1.7A13,13,0,0,1,56,35.5v-.69a2.48,2.48,0,0,0-.18-1.15.66.66,0,0,0-.65-.31.73.73,0,0,0-.71.36.94.94,0,0,0-.11.29,3.56,3.56,0,0,0-.06.46.52.52,0,0,1-.16.4.77.77,0,0,1-.48.12q-.74,0-.75-.49a1,1,0,0,1,.17-.54,1.56,1.56,0,0,1,.49-.45,3.27,3.27,0,0,1,1.75-.4,2.27,2.27,0,0,1,1.58.44,1.2,1.2,0,0,1,.31.52,2.66,2.66,0,0,1,.1.8v1.85q0,.46,0,.57a5.66,5.66,0,0,0,0,.84.46.46,0,0,0,.17.35.94.94,0,0,0,.52.11m-2-2v-.82a3.25,3.25,0,0,0-1.62.42A1.21,1.21,0,0,0,54,37.24a1.62,1.62,0,0,0,.24.91.74.74,0,0,0,.63.34,1.07,1.07,0,0,0,.6-.19,1.25,1.25,0,0,0,.43-.51A1.63,1.63,0,0,0,56,37.3a4.93,4.93,0,0,0,0-.74"/></g><g id="g4348"><path id="path4350" class="cls-4" d="M41.15,15.5l0,.41L49,25.14l.28,0,0,0,.14-.26L46.1,13.68l-.57-.38Z"/></g><g id="g4378"><g id="g4384"><path id="path4386" class="cls-5" d="M53.77,13.08l5.09,2.34v.66L50.52,28.71l-.38.1-.06,0L50,28.5l3.36-15.18Z"/></g></g><g id="g4414"><g id="g4420"><path id="path4422" class="cls-6" d="M46,9.48l.2-.39L52.72,9l.42.44L50,19.88l-.2.11h0l-.21-.14Z"/></g></g><g id="g4352"><g class="cls-7"><g id="g4354"><g id="g4360"><path id="path4362" class="cls-8" d="M43.48,16.36l5.82,8.85L49,25.16l-7.87-9.25Z"/></g><g id="g4364"><path id="path4366" class="cls-9" d="M45.54,13.29l.57.39L44.34,16l-.82-.36Z"/></g><g id="g4368"><path id="path4370" class="cls-10" d="M43.52,15.66l0,.7-2.37-.45,0-.41Z"/></g><g id="g4372"><path id="path4374" class="cls-10" d="M44.34,16l1.77-2.35,3.4,11.24-.17.29Z"/></g></g></g></g><g id="g4388"><g class="cls-11"><g id="g4390"><g id="g4396"><path id="path4398" class="cls-12" d="M58.89,16.07,50.55,28.74l-.43.12,5.36-12.5Z"/></g><g id="g4400"><path id="path4402" class="cls-13" d="M54.52,15.83l-4.45,13-.13-.32,3.38-15.2Z"/></g><g id="g4404"><path id="path4406" class="cls-14" d="M58.87,15.41v.66l-3.41.29-.19-.9Z"/></g><g id="g4408"><path id="path4410" class="cls-15" d="M55.29,15.46l-.77.37-1.2-2.52.44-.25Z"/></g></g></g></g><g id="g4424"><g class="cls-16"><g id="g4426"><g id="g4432"><path id="path4434" class="cls-17" d="M49,10.18l-.47.55L46,9.47l.21-.39Z"/></g><g id="g4436"><path id="path4438" class="cls-18" d="M46,9.47l2.54,1.27L49.82,20l-.23-.15Z"/></g><g id="g4440"><path id="path4442" class="cls-19" d="M49.75,10.73l3.4-1.28L50,19.89l-.21.12Z"/></g><g id="g4444"><path id="path4446" class="cls-20" d="M49,10.18l.75.56,3.4-1.28L52.73,9Z"/></g></g></g></g></g></svg>