<svg xmlns="http://www.w3.org/2000/svg" viewBox="0 0 100 48"><defs><style>.cls-1{fill:#d7d7d7;}.cls-2{fill:#0056a6;}.cls-3{fill:#f48120;stroke:#fff;stroke-miterlimit:2.61;stroke-width:0.25px;}.cls-3,.cls-4{fill-rule:evenodd;}.cls-4{fill:#fff;}</style></defs><title>logo bank colorful</title><g id="Prima"><path class="cls-1" d="M96,1a3,3,0,0,1,3,3V44a3,3,0,0,1-3,3H4a3,3,0,0,1-3-3V4A3,3,0,0,1,4,1H96m0-1H4A4,4,0,0,0,0,4V44a4,4,0,0,0,4,4H96a4,4,0,0,0,4-4V4a4,4,0,0,0-4-4Z"/><rect class="cls-2" x="25.23" y="8" width="49.17" height="32.95" rx="1.04" ry="1.04"/><path class="cls-3" d="M50.92,31.44c-8.77.49-24.24-.91-24.16-7.69.09-7.1,15.24-9.66,22.08-9.5V13.18l2,1,2,1-2,1-2,1V16.16c-6.55,0-20.26,2.11-20.32,8.07C28.48,29.17,42,30.61,50.92,31.44Z"/><path class="cls-3" d="M49.08,17.26c8.77-.49,24.24.91,24.16,7.69C73.15,32,58,34.6,51.16,34.45v1.07l-2-1-2-1,2-1,2-1v1.07c6.55,0,20.26-2.11,20.32-8.07C71.52,19.53,58,18.09,49.08,17.26Z"/><path class="cls-4" d="M33.21,21h3a3.42,3.42,0,0,1,1.3.19,1.51,1.51,0,0,1,.69.57,1.83,1.83,0,0,1,.27.93A2,2,0,0,1,38.14,24a2.14,2.14,0,0,1-1,.8,4.73,4.73,0,0,1-1.7.24h-.92l-.42,2.35H32L32.85,23h-.48l.84-2Zm1.56,2.75h.7a1.12,1.12,0,0,0,.79-.27.8.8,0,0,0,.28-.65q0-.57-.68-.57h-.81Z"/><path class="cls-4" d="M45.26,27.4H43L41.54,25h0l-.47,2.43H39.26L40.1,23h-.55l.93-2h3.1a1.93,1.93,0,0,1,1.49.51,1.49,1.49,0,0,1,.31,1.36,2.54,2.54,0,0,1-.4,1,2.67,2.67,0,0,1-1.43.9l1.71,2.61Zm-3.45-3.79h.78a1.06,1.06,0,0,0,.58-.15.67.67,0,0,0,.3-.45q.12-.61-.58-.61H42Z"/><polygon class="cls-4" points="49.63 21.05 48.49 27.4 46.56 27.4 47.35 23 46.87 23 47.69 21.05 49.63 21.05"/><polygon class="cls-4" points="49.95 27.4 51.89 22.55 51.33 22.55 52.49 21.05 54.6 21.05 55.34 24.34 57.61 21.05 59.64 21.05 59.64 27.4 57.68 27.4 57.67 23.72 55.17 27.45 54.33 27.4 53.31 23.72 51.92 27.4 49.95 27.4"/><path class="cls-4" d="M68,27.4H65.77l-.1-1H63.31l-.56,1H60.34l3.12-4.85h-.61L64.43,21h2.38L68,27.4ZM65.53,25l-.22-2.32h0L64,25Z"/></g></svg>